# xmcd
#
# Track frame offsets: 
#        182
#        16770
#        33861
#        49748
#        66006
#        81540
#        93027
#        108245
#        123942
#        139406
#        153229
#        165267
#        179231
#        192977
#        207548
#        222304
#        235837
#        249509
#        262407
#        274361
#        287964
#        300510
#        314408
#
# Disc length: 4360 seconds
#
# Revision: 6
# Processed by: cddbd v1.5.2PL0 Copyright (c) Steve Scherf et al.
# Submitted via: ExactAudioCopyFreeDBPlugin 1.0
#
DISCID=55110617
DTITLE=John Lee Hooker - The Complete John Lee Hooker. Vol. 1
DYEAR=2003
DGENRE=Blues
TTITLE0=Rocks
TTITLE1=Leavin' Chicago
TTITLE2=Wednesday Evening Blues
TTITLE3=Shaker Your Boogie
TTITLE4=Poor Slim
TTITLE5=Poor Slim
TTITLE6=Down So Long
TTITLE7=Sally Mae
TTITLE8=Sally Mae
TTITLE9=War Is Over
TTITLE10=See, See Baby
TTITLE11=She Was In Chicago
TTITLE12=Crazy 'Bout That Woman
TTITLE13=Boogie Chillen
TTITLE14=Henry's Swing Club
TTITLE15=Johnny Lee's Original Boogie
TTITLE16=Good Business
TTITLE17=Mercy Blues
TTITLE18=Boogie Woogie
TTITLE19=Stomp Boogie
TTITLE20=Who's Been Jiving You
TTITLE21=Black Man Blues
TTITLE22=Poor Joe
EXTD=
EXTT0=
EXTT1=
EXTT2=
EXTT3=
EXTT4=
EXTT5=
EXTT6=
EXTT7=
EXTT8=
EXTT9=
EXTT10=
EXTT11=
EXTT12=
EXTT13=
EXTT14=
EXTT15=
EXTT16=
EXTT17=
EXTT18=
EXTT19=
EXTT20=
EXTT21=
EXTT22=
PLAYORDER=
